HIERARCHY
ROOT Hips
{
	OFFSET 0.00 0.00 0.00
	CHANNELS 6 Xposition Yposition Zposition Xrotation Yrotation Zrotation
	JOINT Spine
	{
		OFFSET 0.00000 2.10617 3.15926
		CHANNELS 3 Xrotation Yrotation Zrotation
		JOINT Spine1
		{
			OFFSET 0.00000 0.73147 4.14835
			CHANNELS 3 Xrotation Yrotation Zrotation
			JOINT Spine2
			{
				OFFSET 0.00000 0.36713 4.19631
				CHANNELS 3 Xrotation Yrotation Zrotation
				JOINT Spine3
				{
					OFFSET 0.00000 0.00000 4.21234
					CHANNELS 3 Xrotation Yrotation Zrotation
					JOINT Neck
					{
						OFFSET 0.00000 -1.57962 11.05740
						CHANNELS 3 Xrotation Yrotation Zrotation
						JOINT Head
						{
							OFFSET 0.00000 -1.00576 5.70398
							CHANNELS 3 Xrotation Yrotation Zrotation
							End Site
							{
								OFFSET 0.00000 0.00001 6.81873
							}
						}
					}
					JOINT RightShoulder
					{
						OFFSET -1.28113 -2.13521 6.91810
						CHANNELS 3 Xrotation Yrotation Zrotation
						JOINT RightArm
						{
							OFFSET -6.36294 0.00000 0.00000
							CHANNELS 3 Xrotation Yrotation Zrotation
							JOINT RightForeArm
							{
								OFFSET -10.12221 0.00000 0.00000
								CHANNELS 3 Xrotation Yrotation Zrotation
								JOINT RightHand
								{
									OFFSET -10.76713 0.00000 0.00000
									CHANNELS 3 Xrotation Yrotation Zrotation
									JOINT RightHandEnd
									{
										OFFSET -2.78915 0.00000 0.00000
										CHANNELS 3 Xrotation Yrotation Zrotation
										End Site
										{
											OFFSET -2.78915 0.00000 0.00000
										}
									}
									JOINT RightHandThumb1
									{
										OFFSET -1.11566 -1.85944 -0.74377
										CHANNELS 3 Yrotation Xrotation Zrotation
										End Site
										{
											OFFSET -2.69412 -0.72189 0.00000
										}
									}
								}
							}
						}
					}
					JOINT LeftShoulder
					{
						OFFSET 1.28113 -2.13521 6.91810
						CHANNELS 3 Xrotation Yrotation Zrotation
						JOINT LeftArm
						{
							OFFSET 6.36294 0.00000 0.00000
							CHANNELS 3 Xrotation Yrotation Zrotation
							JOINT LeftForeArm
							{
								OFFSET 10.12221 0.00000 0.00000
								CHANNELS 3 Xrotation Yrotation Zrotation
								JOINT LeftHand
								{
									OFFSET 10.76713 0.00000 0.00000
									CHANNELS 3 Xrotation Yrotation Zrotation
									JOINT LeftHandEnd
									{
										OFFSET 2.78915 0.00000 0.00000
										CHANNELS 3 Xrotation Yrotation Zrotation
										End Site
										{
											OFFSET 2.78915 0.00000 0.00000
										}
									}
									JOINT LeftHandThumb1
									{
										OFFSET 1.11566 -1.85944 -0.74377
										CHANNELS 3 Yrotation Xrotation Zrotation
										End Site
										{
											OFFSET 2.69412 -0.72189 0.00000
										}
									}
								}
							}
						}
					}
				}
			}
		}
	}
	JOINT RightUpLeg
	{
		OFFSET -3.80068 0.00000 -1.11031
		CHANNELS 3 Xrotation Yrotation Zrotation
		JOINT RightLeg
		{
			OFFSET 0.00001 0.00000 -17.00167
			CHANNELS 3 Xrotation Yrotation Zrotation
			JOINT RightFoot
			{
				OFFSET 0.00001 0.00000 -17.96841
				CHANNELS 3 Xrotation Yrotation Zrotation
				JOINT RightToeBase
				{
					OFFSET 0.00000 -5.07501 -1.84715
					CHANNELS 3 Xrotation Yrotation Zrotation
					End Site
					{
						OFFSET 0.00000 -3.07471 -0.00000
					}
				}
			}
		}
	}
	JOINT LeftUpLeg
	{
		OFFSET 3.80068 0.00000 -1.11031
		CHANNELS 3 Xrotation Yrotation Zrotation
		JOINT LeftLeg
		{
			OFFSET 0.00001 0.00000 -17.00167
			CHANNELS 3 Xrotation Yrotation Zrotation
			JOINT LeftFoot
			{
				OFFSET 0.00001 0.00000 -17.96841
				CHANNELS 3 Xrotation Yrotation Zrotation
				JOINT LeftToeBase
				{
					OFFSET 0.00000 -5.07501 -1.84715
					CHANNELS 3 Xrotation Yrotation Zrotation
					End Site
					{
						OFFSET 0.00000 -3.07471 -0.00000
					}
				}
			}
		}
	}
}
MOTION
Frames: 15
Frame Time: 0.008342
 7.8498 57.1124 37.9960 2.5780 0.5800 3.1977 -0.6848 1.3250 0.1922 -0.4199 0.0254 -0.0020 2.1200 -3.2611 0.7071 0.4728 -2.0850 2.2062 0.3121 -7.3021 10.3077 -0.1058 4.8622 17.9424 -5.4125 7.1915 -1.1425 -30.7624 -18.4605 -35.6974 0.0000 0.0000 33.0641 2.6027 16.7525 -3.2504 0.0000 -0.0000 -0.0000 -0.0000 -0.0000 0.0000 -6.4725 4.5598 -4.3256 -18.1740 12.7710 21.7846 -0.0000 -0.0000 -24.0273 -19.5024 -11.0450 4.1516 0.0000 0.0000 0.0000 0.0000 0.0000 0.0000 -3.6364 -0.1280 -25.4648 5.7988 0.0000 0.0000 -4.9528 -4.8931 -2.4941 2.0677 0.0000 0.0000 -4.5992 -1.9753 10.2429 5.4030 0.0000 0.0000 -5.9598 31.2028 9.0084 3.4890 0.0000 0.0000
 7.8502 57.1167 37.9961 2.5794 0.5783 3.1932 -0.6784 1.3200 0.1933 -0.4189 0.0322 -0.0020 2.1226 -3.2721 0.7157 0.4741 -2.0876 2.2092 0.3252 -7.3113 10.3375 -0.1290 4.8861 17.9839 -5.4106 7.2106 -1.1503 -30.7744 -18.4735 -35.7113 0.0000 0.0000 33.0666 2.6017 16.7462 -3.2482 0.0000 0.0000 0.0000 0.0000 -0.0000 0.0000 -6.4697 4.5685 -4.3212 -18.1771 12.7708 21.7812 -0.0000 -0.0000 -24.0378 -19.5021 -11.0427 4.1490 0.0000 -0.0000 -0.0000 -0.0000 0.0000 0.0000 -3.6509 -0.1234 -25.4425 5.8108 0.0000 0.0000 -4.9544 -4.8912 -2.5094 2.0716 0.0000 0.0000 -4.6088 -1.9722 10.2296 5.4062 0.0000 0.0000 -5.9657 31.1957 9.0266 3.4974 0.0000 0.0000
 7.8505 57.1232 37.9961 2.5927 0.5773 3.1877 -0.6803 1.3169 0.1930 -0.4182 0.0298 -0.0018 2.1267 -3.2767 0.7251 0.4759 -2.0928 2.2165 0.3395 -7.3220 10.3734 -0.1562 4.9170 18.0345 -5.4071 7.2335 -1.1631 -30.7913 -18.4911 -35.7273 0.0000 0.0000 33.0699 2.6047 16.7393 -3.2473 0.0000 -0.0000 0.0000 -0.0000 0.0000 0.0000 -6.4678 4.5829 -4.3164 -18.1763 12.7677 21.7750 -0.0000 -0.0000 -24.0508 -19.5042 -11.0394 4.1461 0.0000 -0.0000 0.0000 -0.0000 0.0000 0.0000 -3.6850 -0.1175 -25.4114 5.8296 0.0000 0.0000 -4.9561 -4.8877 -2.5315 2.0747 0.0000 0.0000 -4.6374 -1.9694 10.2120 5.4152 0.0000 0.0000 -5.9731 31.1870 9.0492 3.5077 0.0000 0.0000
 7.8509 57.1307 37.9961 2.6026 0.5762 3.1808 -0.6765 1.3120 0.1929 -0.4168 0.0284 -0.0015 2.1309 -3.2829 0.7367 0.4780 -2.0988 2.2247 0.3572 -7.3337 10.4161 -0.1909 4.9525 18.0925 -5.4003 7.2619 -1.1791 -30.8126 -18.5153 -35.7460 0.0000 0.0000 33.0731 2.6130 16.7329 -3.2474 -0.0000 0.0000 0.0000 -0.0000 0.0000 0.0000 -6.4655 4.5979 -4.3096 -18.1728 12.7660 21.7677 -0.0000 -0.0000 -24.0661 -19.5078 -11.0359 4.1431 0.0000 -0.0000 -0.0000 -0.0000 0.0000 0.0000 -3.7172 -0.1118 -25.3756 5.8486 0.0000 0.0000 -4.9561 -4.8840 -2.5555 2.0767 0.0000 0.0000 -4.6625 -1.9667 10.1974 5.4221 0.0000 0.0000 -5.9774 31.1788 9.0692 3.5180 0.0000 0.0000
 7.8512 57.1391 37.9961 2.6104 0.5754 3.1728 -0.6681 1.3061 0.1928 -0.4146 0.0255 -0.0012 2.1344 -3.2886 0.7502 0.4800 -2.1057 2.2335 0.3776 -7.3448 10.4636 -0.2323 4.9911 18.1558 -5.3911 7.2949 -1.1980 -30.8371 -18.5457 -35.7668 0.0000 0.0000 33.0764 2.6235 16.7262 -3.2499 0.0000 0.0000 -0.0000 0.0000 -0.0000 -0.0000 -6.4621 4.6149 -4.3012 -18.1683 12.7637 21.7600 -0.0000 -0.0000 -24.0842 -19.5127 -11.0322 4.1416 -0.0000 -0.0000 -0.0000 -0.0000 0.0000 -0.0000 -3.7493 -0.1063 -25.3363 5.8682 0.0000 0.0000 -4.9542 -4.8800 -2.5803 2.0765 0.0000 0.0000 -4.6861 -1.9647 10.1860 5.4275 0.0000 0.0000 -5.9784 31.1722 9.0857 3.5276 0.0000 0.0000
 7.8516 57.1492 37.9960 2.6276 0.5744 3.1639 -0.6648 1.2991 0.1932 -0.4140 0.0234 -0.0018 2.1389 -3.2944 0.7654 0.4823 -2.1130 2.2432 0.3981 -7.3555 10.5143 -0.2757 5.0323 18.2214 -5.3802 7.3294 -1.2201 -30.8647 -18.5806 -35.7873 0.0000 0.0000 33.0793 2.6393 16.7214 -3.2530 0.0000 -0.0000 0.0000 0.0000 -0.0000 -0.0000 -6.4593 4.6334 -4.2908 -18.1627 12.7614 21.7513 -0.0000 -0.0000 -24.1030 -19.5192 -11.0302 4.1384 0.0000 -0.0000 -0.0000 0.0000 -0.0000 0.0000 -3.7963 -0.0990 -25.2927 5.8928 0.0000 0.0000 -4.9520 -4.8746 -2.6075 2.0738 0.0000 0.0000 -4.7232 -1.9623 10.1750 5.4354 0.0000 0.0000 -5.9776 31.1672 9.1020 3.5342 0.0000 0.0000
 7.8519 57.1602 37.9959 2.6479 0.5730 3.1546 -0.6629 1.2919 0.1934 -0.4118 0.0210 -0.0013 2.1422 -3.3004 0.7805 0.4841 -2.1196 2.2523 0.4195 -7.3648 10.5662 -0.3217 5.0738 18.2872 -5.3707 7.3636 -1.2404 -30.8912 -18.6165 -35.8108 0.0000 0.0000 33.0828 2.6583 16.7156 -3.2583 0.0000 -0.0000 -0.0000 -0.0000 -0.0000 -0.0000 -6.4584 4.6529 -4.2796 -18.1547 12.7575 21.7446 -0.0000 -0.0000 -24.1228 -19.5270 -11.0292 4.1357 -0.0000 -0.0000 -0.0000 0.0000 -0.0000 0.0000 -3.8489 -0.0906 -25.2486 5.9191 0.0000 0.0000 -4.9488 -4.8686 -2.6338 2.0685 0.0000 0.0000 -4.7644 -1.9594 10.1665 5.4422 0.0000 0.0000 -5.9731 31.1650 9.1153 3.5365 0.0000 0.0000
 7.8520 57.1716 37.9958 2.6656 0.5730 3.1462 -0.6565 1.2835 0.1934 -0.4082 0.0170 -0.0008 2.1430 -3.3047 0.7957 0.4856 -2.1264 2.2611 0.4415 -7.3706 10.6167 -0.3701 5.1119 18.3495 -5.3591 7.3987 -1.2632 -30.9186 -18.6571 -35.8334 0.0000 0.0000 33.0851 2.6796 16.7126 -3.2648 -0.0000 0.0000 -0.0000 -0.0000 0.0000 0.0000 -6.4555 4.6696 -4.2677 -18.1514 12.7562 21.7396 -0.0000 -0.0000 -24.1419 -19.5351 -11.0317 4.1318 -0.0000 0.0000 0.0000 0.0000 0.0000 0.0000 -3.8975 -0.0847 -25.2077 5.9417 0.0000 0.0000 -4.9425 -4.8625 -2.6574 2.0609 0.0000 0.0000 -4.8030 -1.9590 10.1624 5.4484 0.0000 0.0000 -5.9651 31.1677 9.1222 3.5340 0.0000 0.0000
 7.8521 57.1837 37.9956 2.6895 0.5728 3.1392 -0.6533 1.2744 0.1937 -0.4066 0.0140 -0.0013 2.1442 -3.3082 0.8104 0.4864 -2.1323 2.2694 0.4615 -7.3732 10.6636 -0.4162 5.1461 18.4063 -5.3500 7.4309 -1.2838 -30.9443 -18.6969 -35.8576 0.0000 0.0000 33.0879 2.7036 16.7091 -3.2724 -0.0000 0.0000 0.0000 -0.0000 0.0000 0.0000 -6.4560 4.6862 -4.2566 -18.1473 12.7532 21.7385 -0.0000 -0.0000 -24.1598 -19.5450 -11.0367 4.1269 0.0000 0.0000 0.0000 0.0000 -0.0000 0.0000 -3.9542 -0.0778 -25.1697 5.9654 0.0000 0.0000 -4.9357 -4.8557 -2.6793 2.0504 0.0000 0.0000 -4.8498 -1.9581 10.1574 5.4550 0.0000 0.0000 -5.9552 31.1736 9.1285 3.5263 0.0000 0.0000
 7.8520 57.1957 37.9954 2.7107 0.5737 3.1344 -0.6477 1.2655 0.1933 -0.4004 0.0092 0.0008 2.1399 -3.3110 0.8225 0.4868 -2.1368 2.2748 0.4804 -7.3718 10.7063 -0.4607 5.1747 18.4551 -5.3424 7.4600 -1.3016 -30.9668 -18.7360 -35.8824 0.0000 0.0000 33.0902 2.7271 16.7062 -3.2807 -0.0000 -0.0000 0.0000 0.0000 0.0000 -0.0000 -6.4563 4.7000 -4.2455 -18.1469 12.7504 21.7410 -0.0000 -0.0000 -24.1759 -19.5553 -11.0469 4.1225 0.0000 -0.0000 0.0000 -0.0000 0.0000 0.0000 -4.0055 -0.0730 -25.1399 5.9850 0.0000 0.0000 -4.9266 -4.8491 -2.6954 2.0382 0.0000 0.0000 -4.8933 -1.9591 10.1558 5.4609 0.0000 0.0000 -5.9421 31.1837 9.1288 3.5138 0.0000 0.0000
 7.8517 57.2081 37.9952 2.7364 0.5752 3.1325 -0.6425 1.2550 0.1939 -0.4007 0.0057 -0.0006 2.1388 -3.3116 0.8340 0.4860 -2.1411 2.2805 0.4959 -7.3652 10.7421 -0.4999 5.1966 18.4936 -5.3363 7.4850 -1.3185 -30.9872 -18.7735 -35.9059 0.0000 0.0000 33.0913 2.7496 16.7053 -3.2888 -0.0000 -0.0000 0.0000 -0.0000 0.0000 0.0000 -6.4577 4.7113 -4.2372 -18.1522 12.7481 21.7487 -0.0000 -0.0000 -24.1889 -19.5668 -11.0610 4.1166 -0.0000 -0.0000 0.0000 -0.0000 -0.0000 0.0000 -4.0611 -0.0688 -25.1162 6.0032 0.0000 0.0000 -4.9166 -4.8422 -2.7090 2.0248 0.0000 0.0000 -4.9433 -1.9606 10.1513 5.4682 0.0000 0.0000 -5.9289 31.1962 9.1294 3.4983 0.0000 0.0000
 7.8512 57.2203 37.9949 2.7622 0.5791 3.1351 -0.6390 1.2442 0.1925 -0.3948 0.0007 0.0001 2.1319 -3.3115 0.8418 0.4848 -2.1441 2.2839 0.5082 -7.3545 10.7709 -0.5340 5.2116 18.5219 -5.3317 7.5045 -1.3320 -31.0049 -18.8075 -35.9288 0.0000 0.0000 33.0917 2.7704 16.7044 -3.2969 0.0000 0.0000 -0.0000 0.0000 0.0000 -0.0000 -6.4588 4.7176 -4.2290 -18.1653 12.7483 21.7608 -0.0000 -0.0000 -24.1992 -19.5775 -11.0812 4.1115 -0.0000 0.0000 0.0000 0.0000 -0.0000 0.0000 -4.1133 -0.0682 -25.1025 6.0156 0.0000 0.0000 -4.9042 -4.8354 -2.7181 2.0110 0.0000 0.0000 -4.9949 -1.9650 10.1461 5.4780 0.0000 0.0000 -5.9153 31.2110 9.1262 3.4809 0.0000 0.0000
 7.8506 57.2322 37.9946 2.7881 0.5822 3.1397 -0.6330 1.2326 0.1939 -0.3943 -0.0030 -0.0008 2.1273 -3.3103 0.8481 0.4827 -2.1448 2.2863 0.5164 -7.3391 10.7903 -0.5616 5.2192 18.5391 -5.3312 7.5198 -1.3442 -31.0191 -18.8384 -35.9523 0.0000 0.0000 33.0919 2.7880 16.7015 -3.3036 0.0000 -0.0000 -0.0000 -0.0000 -0.0000 0.0000 -6.4592 4.7205 -4.2248 -18.1841 12.7495 21.7764 -0.0000 -0.0000 -24.2042 -19.5912 -11.1061 4.1058 0.0000 0.0000 0.0000 0.0000 -0.0000 -0.0000 -4.1639 -0.0667 -25.0978 6.0263 0.0000 0.0000 -4.8919 -4.8293 -2.7212 1.9973 0.0000 0.0000 -5.0458 -1.9682 10.1408 5.4864 0.0000 0.0000 -5.8999 31.2250 9.1213 3.4648 0.0000 0.0000
 7.8500 57.2437 37.9944 2.8105 0.5862 3.1486 -0.6277 1.2218 0.1925 -0.3843 -0.0075 0.0008 2.1149 -3.3087 0.8504 0.4806 -2.1452 2.2864 0.5223 -7.3195 10.8041 -0.5840 5.2202 18.5456 -5.3316 7.5297 -1.3501 -31.0296 -18.8640 -35.9753 0.0000 0.0000 33.0904 2.8012 16.6981 -3.3087 0.0000 -0.0000 -0.0000 -0.0000 0.0000 -0.0000 -6.4603 4.7192 -4.2211 -18.2089 12.7528 21.7983 -0.0000 -0.0000 -24.2075 -19.6058 -11.1338 4.1025 0.0000 0.0000 0.0000 -0.0000 0.0000 0.0000 -4.2071 -0.0670 -25.1030 6.0319 0.0000 0.0000 -4.8787 -4.8240 -2.7196 1.9851 0.0000 0.0000 -5.0928 -1.9725 10.1356 5.4946 0.0000 0.0000 -5.8830 31.2380 9.1120 3.4513 0.0000 0.0000
 7.8494 57.2553 37.9941 2.8386 0.5904 3.1602 -0.6256 1.2098 0.1922 -0.3792 -0.0106 0.0007 2.1057 -3.3060 0.8516 0.4780 -2.1446 2.2856 0.5237 -7.2969 10.8101 -0.5988 5.2168 18.5424 -5.3341 7.5344 -1.3548 -31.0388 -18.8851 -35.9965 0.0000 0.0000 33.0875 2.8110 16.6925 -3.3128 0.0000 -0.0000 0.0000 0.0000 -0.0000 -0.0000 -6.4616 4.7153 -4.2201 -18.2391 12.7576 21.8232 -0.0000 -0.0000 -24.2067 -19.6218 -11.1643 4.1010 0.0000 0.0000 0.0000 0.0000 -0.0000 0.0000 -4.2561 -0.0669 -25.1141 6.0377 0.0000 0.0000 -4.8662 -4.8189 -2.7160 1.9748 0.0000 0.0000 -5.1477 -1.9763 10.1292 5.5055 0.0000 0.0000 -5.8663 31.2474 9.1014 3.4424 0.0000 0.0000
